<svg xmlns="http://www.w3.org/2000/svg" viewBox="0 0 840 2423" font-family="'Apple SD Gothic Neo','Noto Sans KR',sans-serif" role="img" aria-label="함께 지나는 것 — 팔오금 · 손목굴 · 고샅관 — 분지 계보 구조도 퀴즈판">
  <!-- 자동 생성: pipelines/branch_tree.py (스펙: branch_specs.py). 손으로 고치지 말 것.
       근거: 10회차 §팔오금 구조물 · 손목굴 · 고샅관 · 정삭 -->
  <style>text{paint-order:stroke;stroke:#0e1826;stroke-width:3px;stroke-linejoin:round}.kr{font-weight:700}.pin{stroke:none}</style>
  <rect width="840" height="2423" fill="#0e1826"/>
  <text x="26" y="30" fill="#e6edf3" font-size="17" font-weight="700">함께 지나는 것 — 팔오금 · 손목굴 · 고샅관 — 분지 퀴즈판<tspan fill="#93a4b7" font-size="11.5" font-weight="400"> neurovascular bundles: cubital fossa, carpal tunnel, inguinal canal</tspan></text>
  <text x="26" y="50" fill="#93a4b7" font-size="10.5">10회차 · 배열 순서와 벽의 구성이 그대로 태깅 문제가 되는 세 자리</text>
  <text x="26" y="68" fill="#6f8299" font-size="10"><tspan fill="#e0645f">■ 동맥</tspan>  <tspan fill="#b49ae0">■ 정맥</tspan>  <tspan fill="#9cc3ff">■ 신경</tspan>  · 번호를 보고 이름을 답하시오</text>
  <path d="M 602,224 H 615 V 114 H 628" fill="none" stroke="#3f7a5e" stroke-width="1.6"/>
  <path d="M 602,224 H 615 V 167 H 628" fill="none" stroke="#3f7a5e" stroke-width="1.6"/>
  <path d="M 602,224 H 615 V 220 H 628" fill="none" stroke="#3f7a5e" stroke-width="1.6"/>
  <path d="M 602,224 H 615 V 273 H 628" fill="none" stroke="#3f7a5e" stroke-width="1.6"/>
  <path d="M 602,224 H 615 V 342 H 628" fill="none" stroke="#3f7a5e" stroke-width="1.6"/>
  <path d="M 602,480 H 615 V 418 H 628" fill="none" stroke="#3f7a5e" stroke-width="1.6"/>
  <path d="M 602,480 H 615 V 482 H 628" fill="none" stroke="#7a3a38" stroke-width="1.6"/>
  <path d="M 602,480 H 615 V 551 H 628" fill="none" stroke="#4a6483" stroke-width="1.6"/>
  <path d="M 602,651 H 615 V 620 H 628" fill="none" stroke="#584a76" stroke-width="1.6"/>
  <path d="M 602,651 H 615 V 690 H 628" fill="none" stroke="#4a6483" stroke-width="1.6"/>
  <path d="M 406,443 H 419 V 224 H 432" fill="none" stroke="#3f7a5e" stroke-width="1.6"/>
  <path d="M 406,443 H 419 V 480 H 432" fill="none" stroke="#3f7a5e" stroke-width="1.6"/>
  <path d="M 406,443 H 419 V 651 H 432" fill="none" stroke="#3f7a5e" stroke-width="1.6"/>
  <path d="M 602,840 H 615 V 754 H 628" fill="none" stroke="#3f7a5e" stroke-width="1.6"/>
  <path d="M 602,840 H 615 V 807 H 628" fill="none" stroke="#3f7a5e" stroke-width="1.6"/>
  <path d="M 602,840 H 615 V 868 H 628" fill="none" stroke="#3f7a5e" stroke-width="1.6"/>
  <path d="M 602,840 H 615 V 936 H 628" fill="none" stroke="#3f7a5e" stroke-width="1.6"/>
  <path d="M 602,1074 H 615 V 996 H 628" fill="none" stroke="#3f7a5e" stroke-width="1.6"/>
  <path d="M 602,1074 H 615 V 1049 H 628" fill="none" stroke="#3f7a5e" stroke-width="1.6"/>
  <path d="M 602,1074 H 615 V 1102 H 628" fill="none" stroke="#3f7a5e" stroke-width="1.6"/>
  <path d="M 602,1074 H 615 V 1160 H 628" fill="none" stroke="#4a6483" stroke-width="1.6"/>
  <path d="M 406,1038 H 419 V 840 H 432" fill="none" stroke="#3f7a5e" stroke-width="1.6"/>
  <path d="M 406,1038 H 419 V 1074 H 432" fill="none" stroke="#3f7a5e" stroke-width="1.6"/>
  <path d="M 406,1038 H 419 V 1236 H 432" fill="none" stroke="#3f7a5e" stroke-width="1.6"/>
  <path d="M 602,1408 H 615 V 1310 H 628" fill="none" stroke="#3f7a5e" stroke-width="1.6"/>
  <path d="M 602,1408 H 615 V 1380 H 628" fill="none" stroke="#3f7a5e" stroke-width="1.6"/>
  <path d="M 602,1408 H 615 V 1450 H 628" fill="none" stroke="#3f7a5e" stroke-width="1.6"/>
  <path d="M 602,1408 H 615 V 1514 H 628" fill="none" stroke="#3f7a5e" stroke-width="1.6"/>
  <path d="M 602,1624 H 615 V 1588 H 628" fill="none" stroke="#3f7a5e" stroke-width="1.6"/>
  <path d="M 602,1624 H 615 V 1669 H 628" fill="none" stroke="#3f7a5e" stroke-width="1.6"/>
  <path d="M 602,1766 H 615 V 1738 H 628" fill="none" stroke="#3f7a5e" stroke-width="1.6"/>
  <path d="M 602,1766 H 615 V 1802 H 628" fill="none" stroke="#3f7a5e" stroke-width="1.6"/>
  <path d="M 602,1926 H 615 V 1866 H 628" fill="none" stroke="#3f7a5e" stroke-width="1.6"/>
  <path d="M 602,1926 H 615 V 1930 H 628" fill="none" stroke="#3f7a5e" stroke-width="1.6"/>
  <path d="M 602,1926 H 615 V 1994 H 628" fill="none" stroke="#3f7a5e" stroke-width="1.6"/>
  <path d="M 602,2144 H 615 V 2058 H 628" fill="none" stroke="#3f7a5e" stroke-width="1.6"/>
  <path d="M 602,2144 H 615 V 2122 H 628" fill="none" stroke="#7a3a38" stroke-width="1.6"/>
  <path d="M 602,2144 H 615 V 2181 H 628" fill="none" stroke="#584a76" stroke-width="1.6"/>
  <path d="M 602,2144 H 615 V 2240 H 628" fill="none" stroke="#4a6483" stroke-width="1.6"/>
  <path d="M 406,1853 H 419 V 1408 H 432" fill="none" stroke="#3f7a5e" stroke-width="1.6"/>
  <path d="M 406,1853 H 419 V 1624 H 432" fill="none" stroke="#3f7a5e" stroke-width="1.6"/>
  <path d="M 406,1853 H 419 V 1766 H 432" fill="none" stroke="#3f7a5e" stroke-width="1.6"/>
  <path d="M 406,1853 H 419 V 1926 H 432" fill="none" stroke="#3f7a5e" stroke-width="1.6"/>
  <path d="M 406,1853 H 419 V 2144 H 432" fill="none" stroke="#3f7a5e" stroke-width="1.6"/>
  <path d="M 406,1853 H 419 V 2304 H 432" fill="none" stroke="#3f7a5e" stroke-width="1.6"/>
  <path d="M 206,1103 H 219 V 443 H 232" fill="none" stroke="#3f7a5e" stroke-width="1.6"/>
  <path d="M 206,1103 H 219 V 1038 H 232" fill="none" stroke="#3f7a5e" stroke-width="1.6"/>
  <path d="M 206,1103 H 219 V 1853 H 232" fill="none" stroke="#3f7a5e" stroke-width="1.6"/>
  <rect x="26" y="1084" width="180" height="38" rx="7" fill="#24402f" stroke="#7fd4a8" stroke-width="1.3"/>
  <circle cx="116" cy="1103" r="14" fill="#eab308" stroke="#0e1826" stroke-width="2"/>
  <text x="116" y="1108" fill="#241a05" font-size="15" font-weight="700" text-anchor="middle" class="pin">1</text>
  <rect x="232" y="415" width="174" height="55" rx="7" fill="#24402f" stroke="#3f7a5e" stroke-width="1.3"/>
  <circle cx="319" cy="443" r="14" fill="#eab308" stroke="#0e1826" stroke-width="2"/>
  <text x="319" y="448" fill="#241a05" font-size="15" font-weight="700" text-anchor="middle" class="pin">2</text>
  <rect x="232" y="1004" width="174" height="66" rx="7" fill="#24402f" stroke="#3f7a5e" stroke-width="1.3"/>
  <circle cx="319" cy="1038" r="14" fill="#eab308" stroke="#0e1826" stroke-width="2"/>
  <text x="319" y="1042" fill="#241a05" font-size="15" font-weight="700" text-anchor="middle" class="pin">3</text>
  <rect x="232" y="1820" width="174" height="66" rx="7" fill="#24402f" stroke="#3f7a5e" stroke-width="1.3"/>
  <circle cx="319" cy="1853" r="14" fill="#eab308" stroke="#0e1826" stroke-width="2"/>
  <text x="319" y="1858" fill="#241a05" font-size="15" font-weight="700" text-anchor="middle" class="pin">4</text>
  <rect x="432" y="202" width="170" height="44" rx="7" fill="#24402f" stroke="#3f7a5e" stroke-width="1.3"/>
  <circle cx="517" cy="224" r="14" fill="#eab308" stroke="#0e1826" stroke-width="2"/>
  <text x="517" y="229" fill="#241a05" font-size="15" font-weight="700" text-anchor="middle" class="pin">5</text>
  <rect x="432" y="458" width="170" height="44" rx="7" fill="#24402f" stroke="#3f7a5e" stroke-width="1.3"/>
  <circle cx="517" cy="480" r="14" fill="#eab308" stroke="#0e1826" stroke-width="2"/>
  <text x="517" y="485" fill="#241a05" font-size="15" font-weight="700" text-anchor="middle" class="pin">6</text>
  <rect x="432" y="629" width="170" height="44" rx="7" fill="#24402f" stroke="#3f7a5e" stroke-width="1.3"/>
  <circle cx="517" cy="651" r="14" fill="#eab308" stroke="#0e1826" stroke-width="2"/>
  <text x="517" y="656" fill="#241a05" font-size="15" font-weight="700" text-anchor="middle" class="pin">7</text>
  <rect x="432" y="818" width="170" height="44" rx="7" fill="#24402f" stroke="#3f7a5e" stroke-width="1.3"/>
  <circle cx="517" cy="840" r="14" fill="#eab308" stroke="#0e1826" stroke-width="2"/>
  <text x="517" y="845" fill="#241a05" font-size="15" font-weight="700" text-anchor="middle" class="pin">8</text>
  <rect x="432" y="1046" width="170" height="55" rx="7" fill="#24402f" stroke="#3f7a5e" stroke-width="1.3"/>
  <circle cx="517" cy="1074" r="14" fill="#eab308" stroke="#0e1826" stroke-width="2"/>
  <text x="517" y="1079" fill="#241a05" font-size="15" font-weight="700" text-anchor="middle" class="pin">9</text>
  <rect x="432" y="1197" width="170" height="77" rx="7" fill="#24402f" stroke="#7fd4a8" stroke-width="2.2"/>
  <circle cx="517" cy="1236" r="14" fill="#eab308" stroke="#0e1826" stroke-width="2"/>
  <text x="517" y="1240" fill="#241a05" font-size="15" font-weight="700" text-anchor="middle" class="pin">10</text>
  <rect x="432" y="1386" width="170" height="44" rx="7" fill="#24402f" stroke="#3f7a5e" stroke-width="1.3"/>
  <circle cx="517" cy="1408" r="14" fill="#eab308" stroke="#0e1826" stroke-width="2"/>
  <text x="517" y="1412" fill="#241a05" font-size="15" font-weight="700" text-anchor="middle" class="pin">11</text>
  <rect x="432" y="1602" width="170" height="44" rx="7" fill="#24402f" stroke="#3f7a5e" stroke-width="1.3"/>
  <circle cx="517" cy="1624" r="14" fill="#eab308" stroke="#0e1826" stroke-width="2"/>
  <text x="517" y="1629" fill="#241a05" font-size="15" font-weight="700" text-anchor="middle" class="pin">12</text>
  <rect x="432" y="1744" width="170" height="44" rx="7" fill="#24402f" stroke="#3f7a5e" stroke-width="1.3"/>
  <circle cx="517" cy="1766" r="14" fill="#eab308" stroke="#0e1826" stroke-width="2"/>
  <text x="517" y="1771" fill="#241a05" font-size="15" font-weight="700" text-anchor="middle" class="pin">13</text>
  <rect x="432" y="1904" width="170" height="44" rx="7" fill="#24402f" stroke="#3f7a5e" stroke-width="1.3"/>
  <circle cx="517" cy="1926" r="14" fill="#eab308" stroke="#0e1826" stroke-width="2"/>
  <text x="517" y="1931" fill="#241a05" font-size="15" font-weight="700" text-anchor="middle" class="pin">14</text>
  <rect x="432" y="2122" width="170" height="44" rx="7" fill="#24402f" stroke="#3f7a5e" stroke-width="1.3"/>
  <circle cx="517" cy="2144" r="14" fill="#eab308" stroke="#0e1826" stroke-width="2"/>
  <text x="517" y="2150" fill="#241a05" font-size="15" font-weight="700" text-anchor="middle" class="pin">15</text>
  <rect x="432" y="2276" width="170" height="55" rx="7" fill="#24402f" stroke="#7fd4a8" stroke-width="2.2"/>
  <circle cx="517" cy="2304" r="14" fill="#eab308" stroke="#0e1826" stroke-width="2"/>
  <text x="517" y="2308" fill="#241a05" font-size="15" font-weight="700" text-anchor="middle" class="pin">16</text>
  <rect x="628" y="92" width="160" height="44" rx="7" fill="#24402f" stroke="#7fd4a8" stroke-width="2.2"/>
  <circle cx="708" cy="114" r="14" fill="#eab308" stroke="#0e1826" stroke-width="2"/>
  <text x="708" y="119" fill="#241a05" font-size="15" font-weight="700" text-anchor="middle" class="pin">17</text>
  <rect x="628" y="145" width="160" height="44" rx="7" fill="#24402f" stroke="#7fd4a8" stroke-width="2.2"/>
  <circle cx="708" cy="167" r="14" fill="#eab308" stroke="#0e1826" stroke-width="2"/>
  <text x="708" y="172" fill="#241a05" font-size="15" font-weight="700" text-anchor="middle" class="pin">18</text>
  <rect x="628" y="198" width="160" height="44" rx="7" fill="#24402f" stroke="#7fd4a8" stroke-width="2.2"/>
  <circle cx="708" cy="220" r="14" fill="#eab308" stroke="#0e1826" stroke-width="2"/>
  <text x="708" y="225" fill="#241a05" font-size="15" font-weight="700" text-anchor="middle" class="pin">19</text>
  <rect x="628" y="251" width="160" height="44" rx="7" fill="#24402f" stroke="#7fd4a8" stroke-width="2.2"/>
  <circle cx="708" cy="273" r="14" fill="#eab308" stroke="#0e1826" stroke-width="2"/>
  <text x="708" y="278" fill="#241a05" font-size="15" font-weight="700" text-anchor="middle" class="pin">20</text>
  <rect x="628" y="304" width="160" height="77" rx="7" fill="#24402f" stroke="#7fd4a8" stroke-width="2.2"/>
  <circle cx="708" cy="342" r="14" fill="#eab308" stroke="#0e1826" stroke-width="2"/>
  <text x="708" y="348" fill="#241a05" font-size="15" font-weight="700" text-anchor="middle" class="pin">21</text>
  <rect x="628" y="390" width="160" height="55" rx="7" fill="#24402f" stroke="#7fd4a8" stroke-width="2.2"/>
  <circle cx="708" cy="418" r="14" fill="#eab308" stroke="#0e1826" stroke-width="2"/>
  <text x="708" y="422" fill="#241a05" font-size="15" font-weight="700" text-anchor="middle" class="pin">22</text>
  <rect x="628" y="454" width="160" height="55" rx="7" fill="#40201f" stroke="#e0645f" stroke-width="2.2"/>
  <circle cx="708" cy="482" r="14" fill="#eab308" stroke="#0e1826" stroke-width="2"/>
  <text x="708" y="486" fill="#241a05" font-size="15" font-weight="700" text-anchor="middle" class="pin">23</text>
  <rect x="628" y="518" width="160" height="66" rx="7" fill="#1d3552" stroke="#9cc3ff" stroke-width="2.2"/>
  <circle cx="708" cy="551" r="14" fill="#eab308" stroke="#0e1826" stroke-width="2"/>
  <text x="708" y="556" fill="#241a05" font-size="15" font-weight="700" text-anchor="middle" class="pin">24</text>
  <rect x="628" y="593" width="160" height="55" rx="7" fill="#2c2542" stroke="#b49ae0" stroke-width="2.2"/>
  <circle cx="708" cy="620" r="14" fill="#eab308" stroke="#0e1826" stroke-width="2"/>
  <text x="708" y="626" fill="#241a05" font-size="15" font-weight="700" text-anchor="middle" class="pin">25</text>
  <rect x="628" y="657" width="160" height="66" rx="7" fill="#1d3552" stroke="#9cc3ff" stroke-width="2.2"/>
  <circle cx="708" cy="690" r="14" fill="#eab308" stroke="#0e1826" stroke-width="2"/>
  <text x="708" y="695" fill="#241a05" font-size="15" font-weight="700" text-anchor="middle" class="pin">26</text>
  <rect x="628" y="732" width="160" height="44" rx="7" fill="#24402f" stroke="#7fd4a8" stroke-width="2.2"/>
  <circle cx="708" cy="754" r="14" fill="#eab308" stroke="#0e1826" stroke-width="2"/>
  <text x="708" y="759" fill="#241a05" font-size="15" font-weight="700" text-anchor="middle" class="pin">27</text>
  <rect x="628" y="785" width="160" height="44" rx="7" fill="#24402f" stroke="#7fd4a8" stroke-width="2.2"/>
  <circle cx="708" cy="807" r="14" fill="#eab308" stroke="#0e1826" stroke-width="2"/>
  <text x="708" y="812" fill="#241a05" font-size="15" font-weight="700" text-anchor="middle" class="pin">28</text>
  <rect x="628" y="838" width="160" height="59" rx="7" fill="#24402f" stroke="#7fd4a8" stroke-width="2.2"/>
  <circle cx="708" cy="868" r="14" fill="#eab308" stroke="#0e1826" stroke-width="2"/>
  <text x="708" y="872" fill="#241a05" font-size="15" font-weight="700" text-anchor="middle" class="pin">29</text>
  <rect x="628" y="906" width="160" height="59" rx="7" fill="#24402f" stroke="#7fd4a8" stroke-width="2.2"/>
  <circle cx="708" cy="936" r="14" fill="#eab308" stroke="#0e1826" stroke-width="2"/>
  <text x="708" y="940" fill="#241a05" font-size="15" font-weight="700" text-anchor="middle" class="pin">30</text>
  <rect x="628" y="974" width="160" height="44" rx="7" fill="#24402f" stroke="#7fd4a8" stroke-width="2.2"/>
  <circle cx="708" cy="996" r="14" fill="#eab308" stroke="#0e1826" stroke-width="2"/>
  <text x="708" y="1001" fill="#241a05" font-size="15" font-weight="700" text-anchor="middle" class="pin">31</text>
  <rect x="628" y="1027" width="160" height="44" rx="7" fill="#24402f" stroke="#7fd4a8" stroke-width="2.2"/>
  <circle cx="708" cy="1049" r="14" fill="#eab308" stroke="#0e1826" stroke-width="2"/>
  <text x="708" y="1054" fill="#241a05" font-size="15" font-weight="700" text-anchor="middle" class="pin">32</text>
  <rect x="628" y="1080" width="160" height="44" rx="7" fill="#24402f" stroke="#7fd4a8" stroke-width="2.2"/>
  <circle cx="708" cy="1102" r="14" fill="#eab308" stroke="#0e1826" stroke-width="2"/>
  <text x="708" y="1107" fill="#241a05" font-size="15" font-weight="700" text-anchor="middle" class="pin">33</text>
  <rect x="628" y="1133" width="160" height="55" rx="7" fill="#1d3552" stroke="#9cc3ff" stroke-width="2.2"/>
  <circle cx="708" cy="1160" r="14" fill="#eab308" stroke="#0e1826" stroke-width="2"/>
  <text x="708" y="1166" fill="#241a05" font-size="15" font-weight="700" text-anchor="middle" class="pin">34</text>
  <rect x="628" y="1283" width="160" height="55" rx="7" fill="#24402f" stroke="#7fd4a8" stroke-width="2.2"/>
  <circle cx="708" cy="1310" r="14" fill="#eab308" stroke="#0e1826" stroke-width="2"/>
  <text x="708" y="1316" fill="#241a05" font-size="15" font-weight="700" text-anchor="middle" class="pin">35</text>
  <rect x="628" y="1347" width="160" height="66" rx="7" fill="#24402f" stroke="#7fd4a8" stroke-width="2.2"/>
  <circle cx="708" cy="1380" r="14" fill="#eab308" stroke="#0e1826" stroke-width="2"/>
  <text x="708" y="1385" fill="#241a05" font-size="15" font-weight="700" text-anchor="middle" class="pin">36</text>
  <rect x="628" y="1422" width="160" height="55" rx="7" fill="#24402f" stroke="#7fd4a8" stroke-width="2.2"/>
  <circle cx="708" cy="1450" r="14" fill="#eab308" stroke="#0e1826" stroke-width="2"/>
  <text x="708" y="1454" fill="#241a05" font-size="15" font-weight="700" text-anchor="middle" class="pin">37</text>
  <rect x="628" y="1486" width="160" height="55" rx="7" fill="#24402f" stroke="#7fd4a8" stroke-width="2.2"/>
  <circle cx="708" cy="1514" r="14" fill="#eab308" stroke="#0e1826" stroke-width="2"/>
  <text x="708" y="1518" fill="#241a05" font-size="15" font-weight="700" text-anchor="middle" class="pin">38</text>
  <rect x="628" y="1550" width="160" height="77" rx="7" fill="#24402f" stroke="#7fd4a8" stroke-width="2.2"/>
  <circle cx="708" cy="1588" r="14" fill="#eab308" stroke="#0e1826" stroke-width="2"/>
  <text x="708" y="1594" fill="#241a05" font-size="15" font-weight="700" text-anchor="middle" class="pin">39</text>
  <rect x="628" y="1636" width="160" height="66" rx="7" fill="#24402f" stroke="#7fd4a8" stroke-width="2.2"/>
  <circle cx="708" cy="1669" r="14" fill="#eab308" stroke="#0e1826" stroke-width="2"/>
  <text x="708" y="1674" fill="#241a05" font-size="15" font-weight="700" text-anchor="middle" class="pin">40</text>
  <rect x="628" y="1711" width="160" height="55" rx="7" fill="#24402f" stroke="#7fd4a8" stroke-width="2.2"/>
  <circle cx="708" cy="1738" r="14" fill="#eab308" stroke="#0e1826" stroke-width="2"/>
  <text x="708" y="1744" fill="#241a05" font-size="15" font-weight="700" text-anchor="middle" class="pin">41</text>
  <rect x="628" y="1775" width="160" height="55" rx="7" fill="#24402f" stroke="#7fd4a8" stroke-width="2.2"/>
  <circle cx="708" cy="1802" r="14" fill="#eab308" stroke="#0e1826" stroke-width="2"/>
  <text x="708" y="1808" fill="#241a05" font-size="15" font-weight="700" text-anchor="middle" class="pin">42</text>
  <rect x="628" y="1839" width="160" height="55" rx="7" fill="#24402f" stroke="#7fd4a8" stroke-width="2.2"/>
  <circle cx="708" cy="1866" r="14" fill="#eab308" stroke="#0e1826" stroke-width="2"/>
  <text x="708" y="1872" fill="#241a05" font-size="15" font-weight="700" text-anchor="middle" class="pin">43</text>
  <rect x="628" y="1903" width="160" height="55" rx="7" fill="#24402f" stroke="#7fd4a8" stroke-width="2.2"/>
  <circle cx="708" cy="1930" r="14" fill="#eab308" stroke="#0e1826" stroke-width="2"/>
  <text x="708" y="1936" fill="#241a05" font-size="15" font-weight="700" text-anchor="middle" class="pin">44</text>
  <rect x="628" y="1967" width="160" height="55" rx="7" fill="#24402f" stroke="#7fd4a8" stroke-width="2.2"/>
  <circle cx="708" cy="1994" r="14" fill="#eab308" stroke="#0e1826" stroke-width="2"/>
  <text x="708" y="2000" fill="#241a05" font-size="15" font-weight="700" text-anchor="middle" class="pin">45</text>
  <rect x="628" y="2031" width="160" height="55" rx="7" fill="#24402f" stroke="#7fd4a8" stroke-width="2.2"/>
  <circle cx="708" cy="2058" r="14" fill="#eab308" stroke="#0e1826" stroke-width="2"/>
  <text x="708" y="2064" fill="#241a05" font-size="15" font-weight="700" text-anchor="middle" class="pin">46</text>
  <rect x="628" y="2095" width="160" height="55" rx="7" fill="#40201f" stroke="#e0645f" stroke-width="2.2"/>
  <circle cx="708" cy="2122" r="14" fill="#eab308" stroke="#0e1826" stroke-width="2"/>
  <text x="708" y="2128" fill="#241a05" font-size="15" font-weight="700" text-anchor="middle" class="pin">47</text>
  <rect x="628" y="2159" width="160" height="44" rx="7" fill="#2c2542" stroke="#b49ae0" stroke-width="2.2"/>
  <circle cx="708" cy="2181" r="14" fill="#eab308" stroke="#0e1826" stroke-width="2"/>
  <text x="708" y="2186" fill="#241a05" font-size="15" font-weight="700" text-anchor="middle" class="pin">48</text>
  <rect x="628" y="2212" width="160" height="55" rx="7" fill="#1d3552" stroke="#9cc3ff" stroke-width="2.2"/>
  <circle cx="708" cy="2240" r="14" fill="#eab308" stroke="#0e1826" stroke-width="2"/>
  <text x="708" y="2244" fill="#241a05" font-size="15" font-weight="700" text-anchor="middle" class="pin">49</text>
  <line x1="26" y1="2341" x2="814" y2="2341" stroke="#2b3a4d" stroke-width="1"/>
  <text x="26" y="2353" fill="#93a4b7" font-size="10.5">팔오금은 가쪽→안쪽 <tspan fill="#e6edf3" font-weight="700">힘줄–동맥–신경(TAN)</tspan>, 위를 널힘줄이 덮는다.</text>
  <text x="26" y="2371" fill="#93a4b7" font-size="10.5">손목굴을 지나는 것은 <tspan fill="#e6edf3" font-weight="700">힘줄 9개 + 정중신경 1개</tspan>뿐 — 동맥도 자신경도 안 지난다.</text>
  <text x="26" y="2389" fill="#93a4b7" font-size="10.5">고샅관의 세 층은 배벽 세 근육에서 <tspan fill="#e6edf3" font-weight="700">순서대로</tspan> 받아 온다.</text>
</svg>
