<svg xmlns="http://www.w3.org/2000/svg" viewBox="0 0 840 1086" font-family="'Apple SD Gothic Neo','Noto Sans KR',sans-serif" role="img" aria-label="얼굴의 두 신경 — VII과 V — 분지 계보 구조도 퀴즈판">
  <!-- 자동 생성: pipelines/branch_tree.py (스펙: branch_specs.py). 손으로 고치지 말 것.
       근거: 4회차 §얼굴신경 · 삼차신경 · 씹기근육 (부위 기준 배정) -->
  <style>text{paint-order:stroke;stroke:#0e1826;stroke-width:3px;stroke-linejoin:round}.kr{font-weight:700}.pin{stroke:none}</style>
  <rect width="840" height="1086" fill="#0e1826"/>
  <text x="26" y="30" fill="#e6edf3" font-size="17" font-weight="700">얼굴의 두 신경 — VII과 V — 분지 퀴즈판<tspan fill="#93a4b7" font-size="11.5" font-weight="400"> facial (VII) &amp; trigeminal (V) nerves</tspan></text>
  <text x="26" y="50" fill="#93a4b7" font-size="10.5">4회차 · 표정근육은 얼굴신경, 씹기근육과 피부감각은 삼차신경 — 인두굽이가 갈랐다</text>
  <text x="26" y="68" fill="#6f8299" font-size="10">번호를 보고 이름을 답하시오 · 정답은 대응 문항 카드 frontmatter</text>
  <path d="M 406,286 H 419 V 125 H 432" fill="none" stroke="#4a6483" stroke-width="1.6"/>
  <path d="M 406,286 H 419 V 194 H 432" fill="none" stroke="#4a6483" stroke-width="1.6"/>
  <path d="M 406,286 H 419 V 258 H 432" fill="none" stroke="#4a6483" stroke-width="1.6"/>
  <path d="M 406,286 H 419 V 322 H 432" fill="none" stroke="#4a6483" stroke-width="1.6"/>
  <path d="M 406,286 H 419 V 386 H 432" fill="none" stroke="#4a6483" stroke-width="1.6"/>
  <path d="M 406,286 H 419 V 456 H 432" fill="none" stroke="#4a6483" stroke-width="1.6"/>
  <path d="M 602,588 H 615 V 526 H 628" fill="none" stroke="#4a6483" stroke-width="1.6"/>
  <path d="M 602,588 H 615 V 590 H 628" fill="none" stroke="#4a6483" stroke-width="1.6"/>
  <path d="M 602,588 H 615 V 659 H 628" fill="none" stroke="#4a6483" stroke-width="1.6"/>
  <path d="M 602,753 H 615 V 728 H 628" fill="none" stroke="#4a6483" stroke-width="1.6"/>
  <path d="M 602,753 H 615 V 787 H 628" fill="none" stroke="#4a6483" stroke-width="1.6"/>
  <path d="M 602,913 H 615 V 851 H 628" fill="none" stroke="#4a6483" stroke-width="1.6"/>
  <path d="M 602,913 H 615 V 920 H 628" fill="none" stroke="#4a6483" stroke-width="1.6"/>
  <path d="M 602,913 H 615 V 984 H 628" fill="none" stroke="#4a6483" stroke-width="1.6"/>
  <path d="M 406,750 H 419 V 588 H 432" fill="none" stroke="#4a6483" stroke-width="1.6"/>
  <path d="M 406,750 H 419 V 753 H 432" fill="none" stroke="#4a6483" stroke-width="1.6"/>
  <path d="M 406,750 H 419 V 913 H 432" fill="none" stroke="#4a6483" stroke-width="1.6"/>
  <path d="M 206,518 H 219 V 286 H 232" fill="none" stroke="#4a6483" stroke-width="1.6"/>
  <path d="M 206,518 H 219 V 750 H 232" fill="none" stroke="#4a6483" stroke-width="1.6"/>
  <rect x="26" y="496" width="180" height="44" rx="7" fill="#1d3552" stroke="#9cc3ff" stroke-width="1.3"/>
  <circle cx="116" cy="518" r="14" fill="#eab308" stroke="#0e1826" stroke-width="2"/>
  <text x="116" y="523" fill="#241a05" font-size="15" font-weight="700" text-anchor="middle" class="pin">1</text>
  <rect x="232" y="253" width="174" height="66" rx="7" fill="#1d3552" stroke="#4a6483" stroke-width="1.3"/>
  <circle cx="319" cy="286" r="14" fill="#eab308" stroke="#0e1826" stroke-width="2"/>
  <text x="319" y="291" fill="#241a05" font-size="15" font-weight="700" text-anchor="middle" class="pin">2</text>
  <rect x="232" y="723" width="174" height="55" rx="7" fill="#1d3552" stroke="#4a6483" stroke-width="1.3"/>
  <circle cx="319" cy="750" r="14" fill="#eab308" stroke="#0e1826" stroke-width="2"/>
  <text x="319" y="756" fill="#241a05" font-size="15" font-weight="700" text-anchor="middle" class="pin">3</text>
  <rect x="432" y="92" width="170" height="66" rx="7" fill="#1d3552" stroke="#9cc3ff" stroke-width="2.2"/>
  <circle cx="517" cy="125" r="14" fill="#eab308" stroke="#0e1826" stroke-width="2"/>
  <text x="517" y="130" fill="#241a05" font-size="15" font-weight="700" text-anchor="middle" class="pin">4</text>
  <rect x="432" y="167" width="170" height="55" rx="7" fill="#1d3552" stroke="#9cc3ff" stroke-width="2.2"/>
  <circle cx="517" cy="194" r="14" fill="#eab308" stroke="#0e1826" stroke-width="2"/>
  <text x="517" y="200" fill="#241a05" font-size="15" font-weight="700" text-anchor="middle" class="pin">5</text>
  <rect x="432" y="231" width="170" height="55" rx="7" fill="#1d3552" stroke="#9cc3ff" stroke-width="2.2"/>
  <circle cx="517" cy="258" r="14" fill="#eab308" stroke="#0e1826" stroke-width="2"/>
  <text x="517" y="264" fill="#241a05" font-size="15" font-weight="700" text-anchor="middle" class="pin">6</text>
  <rect x="432" y="295" width="170" height="55" rx="7" fill="#1d3552" stroke="#9cc3ff" stroke-width="2.2"/>
  <circle cx="517" cy="322" r="14" fill="#eab308" stroke="#0e1826" stroke-width="2"/>
  <text x="517" y="328" fill="#241a05" font-size="15" font-weight="700" text-anchor="middle" class="pin">7</text>
  <rect x="432" y="359" width="170" height="55" rx="7" fill="#1d3552" stroke="#9cc3ff" stroke-width="2.2"/>
  <circle cx="517" cy="386" r="14" fill="#eab308" stroke="#0e1826" stroke-width="2"/>
  <text x="517" y="392" fill="#241a05" font-size="15" font-weight="700" text-anchor="middle" class="pin">8</text>
  <rect x="432" y="423" width="170" height="66" rx="7" fill="#1d3552" stroke="#9cc3ff" stroke-width="2.2"/>
  <circle cx="517" cy="456" r="14" fill="#eab308" stroke="#0e1826" stroke-width="2"/>
  <text x="517" y="461" fill="#241a05" font-size="15" font-weight="700" text-anchor="middle" class="pin">9</text>
  <rect x="432" y="560" width="170" height="55" rx="7" fill="#1d3552" stroke="#4a6483" stroke-width="1.3"/>
  <circle cx="517" cy="588" r="14" fill="#eab308" stroke="#0e1826" stroke-width="2"/>
  <text x="517" y="593" fill="#241a05" font-size="15" font-weight="700" text-anchor="middle" class="pin">10</text>
  <rect x="432" y="726" width="170" height="55" rx="7" fill="#1d3552" stroke="#4a6483" stroke-width="1.3"/>
  <circle cx="517" cy="753" r="14" fill="#eab308" stroke="#0e1826" stroke-width="2"/>
  <text x="517" y="758" fill="#241a05" font-size="15" font-weight="700" text-anchor="middle" class="pin">11</text>
  <rect x="432" y="886" width="170" height="55" rx="7" fill="#1d3552" stroke="#4a6483" stroke-width="1.3"/>
  <circle cx="517" cy="913" r="14" fill="#eab308" stroke="#0e1826" stroke-width="2"/>
  <text x="517" y="918" fill="#241a05" font-size="15" font-weight="700" text-anchor="middle" class="pin">12</text>
  <rect x="628" y="498" width="160" height="55" rx="7" fill="#1d3552" stroke="#9cc3ff" stroke-width="2.2"/>
  <circle cx="708" cy="526" r="14" fill="#eab308" stroke="#0e1826" stroke-width="2"/>
  <text x="708" y="530" fill="#241a05" font-size="15" font-weight="700" text-anchor="middle" class="pin">13</text>
  <rect x="628" y="562" width="160" height="55" rx="7" fill="#1d3552" stroke="#9cc3ff" stroke-width="2.2"/>
  <circle cx="708" cy="590" r="14" fill="#eab308" stroke="#0e1826" stroke-width="2"/>
  <text x="708" y="594" fill="#241a05" font-size="15" font-weight="700" text-anchor="middle" class="pin">14</text>
  <rect x="628" y="626" width="160" height="66" rx="7" fill="#1d3552" stroke="#9cc3ff" stroke-width="2.2"/>
  <circle cx="708" cy="659" r="14" fill="#eab308" stroke="#0e1826" stroke-width="2"/>
  <text x="708" y="664" fill="#241a05" font-size="15" font-weight="700" text-anchor="middle" class="pin">15</text>
  <rect x="628" y="701" width="160" height="55" rx="7" fill="#1d3552" stroke="#9cc3ff" stroke-width="2.2"/>
  <circle cx="708" cy="728" r="14" fill="#eab308" stroke="#0e1826" stroke-width="2"/>
  <text x="708" y="734" fill="#241a05" font-size="15" font-weight="700" text-anchor="middle" class="pin">16</text>
  <rect x="628" y="765" width="160" height="44" rx="7" fill="#1d3552" stroke="#9cc3ff" stroke-width="2.2"/>
  <circle cx="708" cy="787" r="14" fill="#eab308" stroke="#0e1826" stroke-width="2"/>
  <text x="708" y="792" fill="#241a05" font-size="15" font-weight="700" text-anchor="middle" class="pin">17</text>
  <rect x="628" y="818" width="160" height="66" rx="7" fill="#1d3552" stroke="#9cc3ff" stroke-width="2.2"/>
  <circle cx="708" cy="851" r="14" fill="#eab308" stroke="#0e1826" stroke-width="2"/>
  <text x="708" y="856" fill="#241a05" font-size="15" font-weight="700" text-anchor="middle" class="pin">18</text>
  <rect x="628" y="893" width="160" height="55" rx="7" fill="#1d3552" stroke="#9cc3ff" stroke-width="2.2"/>
  <circle cx="708" cy="920" r="14" fill="#eab308" stroke="#0e1826" stroke-width="2"/>
  <text x="708" y="926" fill="#241a05" font-size="15" font-weight="700" text-anchor="middle" class="pin">19</text>
  <rect x="628" y="957" width="160" height="55" rx="7" fill="#1d3552" stroke="#9cc3ff" stroke-width="2.2"/>
  <circle cx="708" cy="984" r="14" fill="#eab308" stroke="#0e1826" stroke-width="2"/>
  <text x="708" y="990" fill="#241a05" font-size="15" font-weight="700" text-anchor="middle" class="pin">20</text>
  <line x1="26" y1="1022" x2="814" y2="1022" stroke="#2b3a4d" stroke-width="1"/>
  <text x="26" y="1034" fill="#93a4b7" font-size="10.5">얼굴신경은 귀밑샘을 <tspan fill="#e6edf3" font-weight="700">지나가기만</tspan> 한다 — 귀밑샘 분비는 IX → 귀신경절 → 귓바퀴관자신경.</text>
  <text x="26" y="1052" fill="#93a4b7" font-size="10.5">표정근육=둘째 인두굽이=VII, 씹기근육=첫째 인두굽이=V3 — 근육의 족보가 신경을 정한다.</text>
</svg>
