<svg xmlns="http://www.w3.org/2000/svg" viewBox="0 0 654 905" font-family="'Apple SD Gothic Neo','Noto Sans KR',sans-serif" role="img" aria-label="아래턱신경과 가슴의 신경 — 분지 계보 구조도 퀴즈판">
  <!-- 자동 생성: pipelines/branch_tree.py (스펙: branch_specs.py). 손으로 고치지 말 것.
       근거: 5회차 §관자아래부위 · 위세로칸 · 심장막 -->
  <style>text{paint-order:stroke;stroke:#0e1826;stroke-width:3px;stroke-linejoin:round}.kr{font-weight:700}.pin{stroke:none}</style>
  <rect width="654" height="905" fill="#0e1826"/>
  <text x="26" y="30" fill="#e6edf3" font-size="17" font-weight="700">아래턱신경과 가슴의 신경 — 분지 퀴즈판<tspan fill="#93a4b7" font-size="11.5" font-weight="400"> mandibular n. &amp; nerves of the thorax</tspan></text>
  <text x="26" y="50" fill="#93a4b7" font-size="10.5">5회차 · 관자아래우묵의 V3와, 세로칸을 지나는 미주·가로막신경</text>
  <text x="26" y="68" fill="#6f8299" font-size="10">번호를 보고 이름을 답하시오 · 정답은 대응 문항 카드 frontmatter</text>
  <path d="M 406,262 H 419 V 125 H 432" fill="none" stroke="#4a6483" stroke-width="1.6"/>
  <path d="M 406,262 H 419 V 200 H 432" fill="none" stroke="#4a6483" stroke-width="1.6"/>
  <path d="M 406,262 H 419 V 275 H 432" fill="none" stroke="#4a6483" stroke-width="1.6"/>
  <path d="M 406,262 H 419 V 344 H 432" fill="none" stroke="#4a6483" stroke-width="1.6"/>
  <path d="M 406,262 H 419 V 408 H 432" fill="none" stroke="#4a6483" stroke-width="1.6"/>
  <path d="M 406,540 H 419 V 478 H 432" fill="none" stroke="#4a6483" stroke-width="1.6"/>
  <path d="M 406,540 H 419 V 548 H 432" fill="none" stroke="#4a6483" stroke-width="1.6"/>
  <path d="M 406,540 H 419 V 612 H 432" fill="none" stroke="#4a6483" stroke-width="1.6"/>
  <path d="M 406,698 H 419 V 670 H 432" fill="none" stroke="#4a6483" stroke-width="1.6"/>
  <path d="M 406,698 H 419 V 734 H 432" fill="none" stroke="#4a6483" stroke-width="1.6"/>
  <path d="M 406,804 H 419 V 804 H 432" fill="none" stroke="#4a6483" stroke-width="1.6"/>
  <path d="M 206,529 H 219 V 262 H 232" fill="none" stroke="#4a6483" stroke-width="1.6"/>
  <path d="M 206,529 H 219 V 540 H 232" fill="none" stroke="#4a6483" stroke-width="1.6"/>
  <path d="M 206,529 H 219 V 698 H 232" fill="none" stroke="#4a6483" stroke-width="1.6"/>
  <path d="M 206,529 H 219 V 804 H 232" fill="none" stroke="#4a6483" stroke-width="1.6"/>
  <rect x="26" y="510" width="180" height="38" rx="7" fill="#1d3552" stroke="#9cc3ff" stroke-width="1.3"/>
  <circle cx="116" cy="529" r="14" fill="#eab308" stroke="#0e1826" stroke-width="2"/>
  <text x="116" y="534" fill="#241a05" font-size="15" font-weight="700" text-anchor="middle" class="pin">1</text>
  <rect x="232" y="235" width="174" height="55" rx="7" fill="#1d3552" stroke="#4a6483" stroke-width="1.3"/>
  <circle cx="319" cy="262" r="14" fill="#eab308" stroke="#0e1826" stroke-width="2"/>
  <text x="319" y="267" fill="#241a05" font-size="15" font-weight="700" text-anchor="middle" class="pin">2</text>
  <rect x="232" y="513" width="174" height="55" rx="7" fill="#1d3552" stroke="#4a6483" stroke-width="1.3"/>
  <circle cx="319" cy="540" r="14" fill="#eab308" stroke="#0e1826" stroke-width="2"/>
  <text x="319" y="545" fill="#241a05" font-size="15" font-weight="700" text-anchor="middle" class="pin">3</text>
  <rect x="232" y="664" width="174" height="66" rx="7" fill="#1d3552" stroke="#4a6483" stroke-width="1.3"/>
  <circle cx="319" cy="698" r="14" fill="#eab308" stroke="#0e1826" stroke-width="2"/>
  <text x="319" y="702" fill="#241a05" font-size="15" font-weight="700" text-anchor="middle" class="pin">4</text>
  <rect x="232" y="776" width="174" height="55" rx="7" fill="#1d3552" stroke="#4a6483" stroke-width="1.3"/>
  <circle cx="319" cy="804" r="14" fill="#eab308" stroke="#0e1826" stroke-width="2"/>
  <text x="319" y="808" fill="#241a05" font-size="15" font-weight="700" text-anchor="middle" class="pin">5</text>
  <rect x="432" y="92" width="170" height="66" rx="7" fill="#1d3552" stroke="#9cc3ff" stroke-width="2.2"/>
  <circle cx="517" cy="125" r="14" fill="#eab308" stroke="#0e1826" stroke-width="2"/>
  <text x="517" y="130" fill="#241a05" font-size="15" font-weight="700" text-anchor="middle" class="pin">6</text>
  <rect x="432" y="167" width="170" height="66" rx="7" fill="#1d3552" stroke="#9cc3ff" stroke-width="2.2"/>
  <circle cx="517" cy="200" r="14" fill="#eab308" stroke="#0e1826" stroke-width="2"/>
  <text x="517" y="205" fill="#241a05" font-size="15" font-weight="700" text-anchor="middle" class="pin">7</text>
  <rect x="432" y="242" width="170" height="66" rx="7" fill="#1d3552" stroke="#9cc3ff" stroke-width="2.2"/>
  <circle cx="517" cy="275" r="14" fill="#eab308" stroke="#0e1826" stroke-width="2"/>
  <text x="517" y="280" fill="#241a05" font-size="15" font-weight="700" text-anchor="middle" class="pin">8</text>
  <rect x="432" y="317" width="170" height="55" rx="7" fill="#1d3552" stroke="#9cc3ff" stroke-width="2.2"/>
  <circle cx="517" cy="344" r="14" fill="#eab308" stroke="#0e1826" stroke-width="2"/>
  <text x="517" y="350" fill="#241a05" font-size="15" font-weight="700" text-anchor="middle" class="pin">9</text>
  <rect x="432" y="381" width="170" height="55" rx="7" fill="#1d3552" stroke="#9cc3ff" stroke-width="2.2"/>
  <circle cx="517" cy="408" r="14" fill="#eab308" stroke="#0e1826" stroke-width="2"/>
  <text x="517" y="414" fill="#241a05" font-size="15" font-weight="700" text-anchor="middle" class="pin">10</text>
  <rect x="432" y="445" width="170" height="66" rx="7" fill="#1d3552" stroke="#9cc3ff" stroke-width="2.2"/>
  <circle cx="517" cy="478" r="14" fill="#eab308" stroke="#0e1826" stroke-width="2"/>
  <text x="517" y="483" fill="#241a05" font-size="15" font-weight="700" text-anchor="middle" class="pin">11</text>
  <rect x="432" y="520" width="170" height="55" rx="7" fill="#1d3552" stroke="#9cc3ff" stroke-width="2.2"/>
  <circle cx="517" cy="548" r="14" fill="#eab308" stroke="#0e1826" stroke-width="2"/>
  <text x="517" y="552" fill="#241a05" font-size="15" font-weight="700" text-anchor="middle" class="pin">12</text>
  <rect x="432" y="584" width="170" height="55" rx="7" fill="#1d3552" stroke="#9cc3ff" stroke-width="2.2"/>
  <circle cx="517" cy="612" r="14" fill="#eab308" stroke="#0e1826" stroke-width="2"/>
  <text x="517" y="616" fill="#241a05" font-size="15" font-weight="700" text-anchor="middle" class="pin">13</text>
  <rect x="432" y="648" width="170" height="44" rx="7" fill="#1d3552" stroke="#9cc3ff" stroke-width="2.2"/>
  <circle cx="517" cy="670" r="14" fill="#eab308" stroke="#0e1826" stroke-width="2"/>
  <text x="517" y="675" fill="#241a05" font-size="15" font-weight="700" text-anchor="middle" class="pin">14</text>
  <rect x="432" y="701" width="170" height="66" rx="7" fill="#1d3552" stroke="#9cc3ff" stroke-width="2.2"/>
  <circle cx="517" cy="734" r="14" fill="#eab308" stroke="#0e1826" stroke-width="2"/>
  <text x="517" y="739" fill="#241a05" font-size="15" font-weight="700" text-anchor="middle" class="pin">15</text>
  <rect x="432" y="776" width="170" height="55" rx="7" fill="#1d3552" stroke="#9cc3ff" stroke-width="2.2"/>
  <circle cx="517" cy="804" r="14" fill="#eab308" stroke="#0e1826" stroke-width="2"/>
  <text x="517" y="808" fill="#241a05" font-size="15" font-weight="700" text-anchor="middle" class="pin">16</text>
  <line x1="26" y1="841" x2="628" y2="841" stroke="#2b3a4d" stroke-width="1"/>
  <text x="26" y="853" fill="#93a4b7" font-size="10.5">V3만 감각+운동 — 씹기근육 넷은 전부 여기서 나온다.</text>
  <text x="26" y="871" fill="#93a4b7" font-size="10.5">허파뿌리 기준: 가로막신경은 <tspan fill="#e6edf3" font-weight="700">앞</tspan>, 미주신경은 <tspan fill="#e6edf3" font-weight="700">뒤</tspan> — 세로칸 태깅의 축.</text>
</svg>
