<svg xmlns="http://www.w3.org/2000/svg" viewBox="0 0 654 861" font-family="'Apple SD Gothic Neo','Noto Sans KR',sans-serif" role="img" aria-label="함께 지나는 것 — 목·넙다리 — 분지 계보 구조도">
  <!-- 자동 생성: pipelines/branch_tree.py (스펙: branch_specs.py). 손으로 고치지 말 것.
       근거: 6회차 §목동맥삼각 · 넙다리삼각 -->
  <style>text{paint-order:stroke;stroke:#0e1826;stroke-width:3px;stroke-linejoin:round}.kr{font-weight:700}.pin{stroke:none}</style>
  <rect width="654" height="861" fill="#0e1826"/>
  <text x="26" y="30" fill="#e6edf3" font-size="17" font-weight="700">함께 지나는 것 — 목·넙다리<tspan fill="#93a4b7" font-size="11.5" font-weight="400"> neurovascular bundles</tspan></text>
  <text x="26" y="50" fill="#93a4b7" font-size="10.5">6회차 · 목혈관신경집과 넙다리혈관집 — 두 '집' 의 배열을 나란히 본다</text>
  <text x="26" y="68" fill="#6f8299" font-size="10"><tspan fill="#e0645f">■ 동맥</tspan>  <tspan fill="#b49ae0">■ 정맥</tspan>  <tspan fill="#9cc3ff">■ 신경</tspan>  · ★ = tagging 최다 빈출 · 굵은 테두리 = 종말가지</text>
  <path d="M 406,179 H 419 V 120 H 432" fill="none" stroke="#7a3a38" stroke-width="1.6"/>
  <path d="M 406,179 H 419 V 184 H 432" fill="none" stroke="#584a76" stroke-width="1.6"/>
  <path d="M 406,179 H 419 V 248 H 432" fill="none" stroke="#4a6483" stroke-width="1.6"/>
  <path d="M 406,403 H 419 V 312 H 432" fill="none" stroke="#4a6483" stroke-width="1.6"/>
  <path d="M 406,403 H 419 V 376 H 432" fill="none" stroke="#7a3a38" stroke-width="1.6"/>
  <path d="M 406,403 H 419 V 440 H 432" fill="none" stroke="#584a76" stroke-width="1.6"/>
  <path d="M 406,403 H 419 V 504 H 432" fill="none" stroke="#3f7a5e" stroke-width="1.6"/>
  <path d="M 406,595 H 419 V 568 H 432" fill="none" stroke="#7a3a38" stroke-width="1.6"/>
  <path d="M 406,595 H 419 V 632 H 432" fill="none" stroke="#4a6483" stroke-width="1.6"/>
  <path d="M 406,718 H 419 V 690 H 432" fill="none" stroke="#7a3a38" stroke-width="1.6"/>
  <path d="M 406,718 H 419 V 754 H 432" fill="none" stroke="#4a6483" stroke-width="1.6"/>
  <path d="M 206,451 H 219 V 179 H 232" fill="none" stroke="#3f7a5e" stroke-width="1.6"/>
  <path d="M 206,451 H 219 V 403 H 232" fill="none" stroke="#3f7a5e" stroke-width="1.6"/>
  <path d="M 206,451 H 219 V 595 H 232" fill="none" stroke="#3f7a5e" stroke-width="1.6"/>
  <path d="M 206,451 H 219 V 718 H 232" fill="none" stroke="#3f7a5e" stroke-width="1.6"/>
  <rect x="26" y="432" width="180" height="38" rx="7" fill="#24402f" stroke="#7fd4a8" stroke-width="1.3"/>
  <text x="36" y="452" fill="#7fd4a8" font-size="12" class="kr">두 개의 '집'</text>
  <rect x="232" y="152" width="174" height="55" rx="7" fill="#24402f" stroke="#3f7a5e" stroke-width="1.3"/>
  <text x="242" y="172" fill="#7fd4a8" font-size="12" class="kr">목혈관신경집 ★</text>
  <text x="242" y="186" fill="#5fae87" font-size="9">carotid sheath</text>
  <text x="242" y="198" fill="#6f8299" font-size="9">목빗근 깊은면</text>
  <rect x="232" y="376" width="174" height="55" rx="7" fill="#24402f" stroke="#3f7a5e" stroke-width="1.3"/>
  <text x="242" y="396" fill="#7fd4a8" font-size="12" class="kr">넙다리혈관집 ★</text>
  <text x="242" y="410" fill="#5fae87" font-size="9">femoral sheath</text>
  <text x="242" y="422" fill="#6f8299" font-size="9">고샅인대 아래 · NAVEL</text>
  <rect x="232" y="568" width="174" height="55" rx="7" fill="#24402f" stroke="#3f7a5e" stroke-width="1.3"/>
  <text x="242" y="588" fill="#7fd4a8" font-size="12" class="kr">모음근굴</text>
  <text x="242" y="602" fill="#5fae87" font-size="9">adductor canal</text>
  <text x="242" y="614" fill="#6f8299" font-size="9">넙다리빗근 아래</text>
  <rect x="232" y="690" width="174" height="55" rx="7" fill="#24402f" stroke="#3f7a5e" stroke-width="1.3"/>
  <text x="242" y="710" fill="#7fd4a8" font-size="12" class="kr">방패목뿔막</text>
  <text x="242" y="725" fill="#5fae87" font-size="9">thyrohyoid membrane</text>
  <text x="242" y="736" fill="#6f8299" font-size="9">뚫고 후두로</text>
  <rect x="432" y="92" width="170" height="55" rx="7" fill="#40201f" stroke="#e0645f" stroke-width="2.2"/>
  <text x="442" y="112" fill="#e0645f" font-size="12" class="kr">온목동맥 ★</text>
  <text x="442" y="127" fill="#c98a86" font-size="9">common carotid a.</text>
  <text x="442" y="138" fill="#6f8299" font-size="9"><tspan fill="#e6edf3" font-weight="700">안쪽</tspan></text>
  <rect x="432" y="156" width="170" height="55" rx="7" fill="#2c2542" stroke="#b49ae0" stroke-width="2.2"/>
  <text x="442" y="176" fill="#b49ae0" font-size="12" class="kr">속목정맥 ★</text>
  <text x="442" y="191" fill="#8f79b8" font-size="9">internal jugular v.</text>
  <text x="442" y="202" fill="#6f8299" font-size="9"><tspan fill="#e6edf3" font-weight="700">가쪽</tspan> · 중심정맥삽입 표적</text>
  <rect x="432" y="220" width="170" height="55" rx="7" fill="#1d3552" stroke="#9cc3ff" stroke-width="2.2"/>
  <text x="442" y="240" fill="#9cc3ff" font-size="12" class="kr">미주신경 X ★</text>
  <text x="442" y="255" fill="#7f9cc4" font-size="9">vagus n.</text>
  <text x="442" y="266" fill="#6f8299" font-size="9">둘 사이 <tspan fill="#e6edf3" font-weight="700">뒤</tspan></text>
  <rect x="432" y="284" width="170" height="55" rx="7" fill="#1d3552" stroke="#9cc3ff" stroke-width="2.2"/>
  <text x="442" y="304" fill="#9cc3ff" font-size="12" class="kr">넙다리신경 ★</text>
  <text x="442" y="319" fill="#7f9cc4" font-size="9">femoral n.</text>
  <text x="442" y="330" fill="#6f8299" font-size="9">가장 <tspan fill="#e6edf3" font-weight="700">가쪽</tspan> — 집 밖에 있다</text>
  <rect x="432" y="348" width="170" height="55" rx="7" fill="#40201f" stroke="#e0645f" stroke-width="2.2"/>
  <text x="442" y="368" fill="#e0645f" font-size="12" class="kr">넙다리동맥 ★</text>
  <text x="442" y="383" fill="#c98a86" font-size="9">femoral a.</text>
  <text x="442" y="394" fill="#6f8299" font-size="9">가쪽칸 · 채혈·카테터 자리</text>
  <rect x="432" y="412" width="170" height="55" rx="7" fill="#2c2542" stroke="#b49ae0" stroke-width="2.2"/>
  <text x="442" y="432" fill="#b49ae0" font-size="12" class="kr">넙다리정맥 ★</text>
  <text x="442" y="447" fill="#8f79b8" font-size="9">femoral v.</text>
  <text x="442" y="458" fill="#6f8299" font-size="9">가운데칸 · 동맥 <tspan fill="#e6edf3" font-weight="700">안쪽</tspan></text>
  <rect x="432" y="476" width="170" height="55" rx="7" fill="#24402f" stroke="#7fd4a8" stroke-width="2.2"/>
  <text x="442" y="496" fill="#7fd4a8" font-size="12" class="kr">넙다리관 + 림프절 ★</text>
  <text x="442" y="511" fill="#5fae87" font-size="9">femoral canal</text>
  <text x="442" y="522" fill="#6f8299" font-size="9">안쪽칸 — 넙다리탈장 입구</text>
  <rect x="432" y="540" width="170" height="55" rx="7" fill="#40201f" stroke="#e0645f" stroke-width="2.2"/>
  <text x="442" y="560" fill="#e0645f" font-size="12" class="kr">넙다리동·정맥</text>
  <text x="442" y="575" fill="#c98a86" font-size="9">femoral a. &amp; v.</text>
  <text x="442" y="586" fill="#6f8299" font-size="9">모음근구멍으로 빠져 뒤로</text>
  <rect x="432" y="604" width="170" height="55" rx="7" fill="#1d3552" stroke="#9cc3ff" stroke-width="2.2"/>
  <text x="442" y="624" fill="#9cc3ff" font-size="12" class="kr">두렁신경 ★</text>
  <text x="442" y="639" fill="#7f9cc4" font-size="9">saphenous n.</text>
  <text x="442" y="650" fill="#6f8299" font-size="9">혈관과 헤어져 앞안쪽으로</text>
  <rect x="432" y="668" width="170" height="44" rx="7" fill="#40201f" stroke="#e0645f" stroke-width="2.2"/>
  <text x="442" y="688" fill="#e0645f" font-size="12" class="kr">위후두동맥</text>
  <text x="442" y="703" fill="#c98a86" font-size="9">superior laryngeal a.</text>
  <rect x="432" y="721" width="170" height="66" rx="7" fill="#1d3552" stroke="#9cc3ff" stroke-width="2.2"/>
  <text x="442" y="741" fill="#9cc3ff" font-size="12" class="kr">위후두신경 속가지 ★</text>
  <text x="442" y="756" fill="#7f9cc4" font-size="9">internal br. of sup. laryngeal</text>
  <text x="442" y="767" fill="#7f9cc4" font-size="9">n.</text>
  <text x="442" y="778" fill="#6f8299" font-size="9">성대문 위 감각</text>
  <line x1="26" y1="797" x2="628" y2="797" stroke="#2b3a4d" stroke-width="1"/>
  <text x="26" y="809" fill="#93a4b7" font-size="10.5">목혈관신경집: 동맥 안쪽 · 정맥 가쪽 · 미주신경은 둘 사이 <tspan fill="#e6edf3" font-weight="700">뒤</tspan>.</text>
  <text x="26" y="827" fill="#93a4b7" font-size="10.5">넙다리삼각 NAVEL: 가쪽부터 신경–동맥–정맥–빈공간–림프. 정맥이 동맥 <tspan fill="#e6edf3" font-weight="700">안쪽</tspan>이다.</text>
</svg>
